<svg width="62" height="47" viewBox="0 0 62 47" fill="none" xmlns="http://www.w3.org/2000/svg">
<g filter="url(#filter0_d_210_11514)">
<g filter="url(#filter1_ii_210_11514)">
<circle cx="22" cy="17.9995" r="16" fill="url(#paint0_linear_210_11514)"/>
</g>
<g style="mix-blend-mode:multiply" opacity="0.6">
<path fill-rule="evenodd" clip-rule="evenodd" d="M12.2046 22.1914C12.0838 22.985 11.969 22.8759 11.7713 22.6881L11.7713 22.6881C11.5956 22.5213 11.3546 22.2924 10.9861 22.5792C10.7211 22.875 10.3439 23.5717 10.5221 23.7673C11.5608 23.5767 11.556 24.7435 10.5044 24.5298C9.83815 24.8806 9.40987 24.6588 9.13505 24.5165C8.90262 24.3961 8.77997 24.3326 8.71597 24.7204C8.80456 25.2477 9.23348 25.3439 9.58128 25.4218C9.91418 25.4964 10.1728 25.5544 9.98747 25.9578L9.98079 25.9903L9.98079 25.9904C9.90335 26.3669 9.8454 26.6487 10.4354 26.7302C11.0613 26.6951 11.0309 27.2599 11.002 27.7964C10.97 28.3898 10.9399 28.9487 11.8016 28.6233C13.215 28.5198 12.7559 29.3791 12.2826 30.2651C12.226 30.371 12.1692 30.4773 12.1154 30.5824C8.39147 27.6528 6 23.1057 6 18C6 12.4629 8.81271 7.5827 13.0873 4.7103C13.2478 4.74412 13.4029 4.81595 13.5451 4.94961L13.5467 4.9529C13.5146 4.74042 13.5708 4.5255 13.6753 4.33352C14.0258 4.11953 14.3852 3.91865 14.7529 3.73157C14.8405 3.81673 14.8793 3.98199 14.8343 4.24955C14.9109 4.28325 14.9988 4.2837 15.0801 4.2841H15.0801C15.2523 4.28498 15.3946 4.28571 15.3368 4.60285C15.3123 4.89047 15.0505 4.95037 14.8068 5.0061L14.8068 5.00611C14.5076 5.07459 14.2358 5.13679 14.465 5.60694C14.441 5.69625 14.4119 5.79121 14.3818 5.88975C14.1921 6.50925 13.9589 7.27113 14.6625 7.67093C15.619 5.15575 17.5864 5.88658 18.6738 6.29051L18.6739 6.29053C19.293 6.52049 19.6268 6.64447 19.3263 6.00297C17.403 5.33577 18.4144 3.39828 20.1466 4.21341C19.8719 3.80967 19.4573 3.73158 19.0532 3.65544L19.0531 3.65541L19.053 3.65541C18.6331 3.57633 18.2244 3.49937 17.9954 3.06143C18.0051 2.92381 18.1502 2.6847 18.327 2.42359C18.917 2.28501 19.5195 2.17909 20.1326 2.10782C20.3014 2.78424 20.6143 3.34265 21.028 3.27503C21.2299 3.32053 21.4813 3.316 21.7345 3.31142L21.7346 3.31142C22.3411 3.30051 22.9581 3.28941 22.9321 3.96526C23.5673 3.68763 23.6604 4.06591 23.751 4.43373L23.751 4.43375C23.781 4.55579 23.8108 4.67671 23.86 4.77212C25.8703 5.84528 25.3149 6.02719 24.6982 6.22915L24.6982 6.22917L24.6981 6.22919C24.262 6.37205 23.7952 6.52492 24.1843 7.01031C23.9348 7.39582 23.5096 7.16128 23.0772 6.92268C22.5971 6.65785 22.1081 6.38808 21.8404 6.9561C21.7274 7.24479 22.1401 7.55478 22.6062 7.90488L22.6062 7.90495C23.1669 8.32609 23.8048 8.80525 23.6979 9.37507C23.2974 9.96889 23.6718 10.3311 24.0718 10.7181C24.4512 11.0851 24.8536 11.4744 24.6402 12.1046C24.3705 12.8211 25.4638 13.1728 25.6806 12.3429C25.8299 11.7316 26.2938 11.9551 26.7064 12.2262C26.0225 11.6543 25.5778 9.35534 26.8959 10.366C26.9755 10.843 27.3427 11.0568 27.6947 11.2618C28.1019 11.4988 28.4889 11.7242 28.3873 12.3314C27.7383 13.4855 30.0515 14.797 32.1548 15.9895C33.5166 16.7616 34.7908 17.4841 35.1157 18.0814C34.9776 19.0345 35.6037 18.7404 35.4143 17.9828C35.4312 17.8838 35.3779 17.7733 35.3271 17.6681L35.3271 17.6681L35.327 17.668C35.2473 17.5027 35.1738 17.3505 35.3886 17.2762C35.6396 17.1887 35.6994 17.3892 35.7624 17.6L35.7624 17.6L35.7625 17.6C35.7942 17.7061 35.8266 17.8149 35.8847 17.8908C36.0469 16.1653 37.6876 19.0559 36.0131 19.3632C37.3201 20.3695 37.0473 21.5891 36.7682 22.837C36.6302 23.4542 36.4906 24.0784 36.5398 24.6871C36.2788 25.2538 35.9855 25.8027 35.6624 26.3314C35.6152 26.2293 35.6045 26.0723 35.6503 25.8478C35.6608 25.5727 35.7861 25.1133 35.9258 24.6007L35.9258 24.6007C36.2754 23.3184 36.7156 21.7037 35.6776 21.8117C35.5044 22.533 35.5027 23.3138 35.501 24.1089V24.109C35.4988 25.128 35.4965 26.1706 35.1332 27.1414C34.585 27.9275 33.9681 28.662 33.2911 29.3363C33.0849 29.2365 32.9509 28.8561 32.7959 28.4165C32.6538 28.0132 32.4941 27.5601 32.2452 27.2281C32.9853 27.3432 33.5504 26.6842 33.9534 25.4024C33.4878 25.5538 33.1654 25.2821 32.9161 25.0721C32.6136 24.8171 32.4188 24.653 32.2067 25.4468C31.1615 24.4772 29.6877 22.4132 30.0602 20.857C30.552 19.8534 30.0283 19.9614 29.3563 20.1002C28.9709 20.1797 28.5366 20.2694 28.2172 20.1651C26.5074 19.7033 26.6872 21.7575 26.8477 22.8619C26.6225 23.4104 26.8916 23.7552 27.1594 24.0983L27.1594 24.0983L27.1596 24.0985L27.1596 24.0985L27.1596 24.0986C27.3041 24.2837 27.4482 24.4683 27.514 24.6843C27.7764 24.7396 28.023 24.7073 28.2599 24.6762L28.2601 24.6762C28.7551 24.6113 29.208 24.5519 29.6749 25.3087C30.6868 25.6741 30.472 26.3595 30.2482 27.0736C30.0381 27.7438 29.82 28.4393 30.6012 28.9191C31.2097 29.6882 30.6879 30.4918 29.8756 30.7941C29.9617 29.1505 29.9091 29.1629 29.5516 29.2471C29.3096 29.3042 28.928 29.394 28.3552 29.026C28.5864 29.915 27.7901 30.081 27.3518 29.5978C27.4339 29.3157 27.3668 29.0853 27.3003 28.857L27.3003 28.857L27.3003 28.857C27.2471 28.6745 27.1943 28.4933 27.2186 28.2881C26.8493 28.7877 26.4415 28.3226 26.5266 27.8099C26.4034 27.3391 26.8389 26.9378 27.2135 26.5926L27.2136 26.5926C27.6732 26.1692 28.0413 25.8301 27.1736 25.5503C26.8514 25.1715 26.5952 25.6501 26.3336 26.1389C26.1389 26.5026 25.9412 26.8719 25.7111 26.8978C25.502 26.6927 25.6102 26.4393 25.7264 26.1674L25.7264 26.1673C25.8448 25.8902 25.9713 25.594 25.7785 25.3104C25.7802 24.5601 25.1452 24.8145 24.6223 25.0241C24.1477 25.2143 23.7654 25.3676 24.035 24.6991C24.9068 23.9941 23.9804 23.3549 23.7364 24.5725C23.2225 24.1731 23.631 23.4988 23.9885 22.9088C24.3971 22.2344 24.739 21.6702 23.5598 21.7526C23.2566 22.0755 23.1384 21.9539 22.9811 21.7921L22.9811 21.7921C22.891 21.6994 22.7881 21.5935 22.6302 21.5504C21.1018 21.716 20.9228 20.4308 20.7326 19.0655C20.566 17.8695 20.3908 16.6121 19.2926 16.2146C18.8857 15.7864 18.96 16.0974 19.0451 16.4537C19.0916 16.6486 19.1414 16.857 19.1176 16.9656C17.9357 16.6946 18.0109 17.1912 18.0649 17.5478C18.1161 17.8854 18.1482 18.0975 17.0771 17.4142C17.0979 18.065 17.0353 20.6121 16.2181 19.4815C15.7802 18.8275 15.0962 18.5978 14.4401 18.3774C13.7494 18.1454 13.0897 17.9239 12.7809 17.2285C12.0376 16.5348 12.3309 16.0689 12.6854 15.5057L12.6854 15.5057L12.6855 15.5055L12.6855 15.5055C12.808 15.3109 12.9377 15.1048 13.0346 14.8736C12.9297 13.8613 13.3461 14.1471 13.8174 14.4706L13.8175 14.4707C14.0171 14.6077 14.2265 14.7515 14.4104 14.8063C14.2781 14.5731 14.1508 14.3719 14.0447 14.2043C13.623 13.5381 13.5368 13.4018 14.8054 13.8876C14.4651 13.4029 14.6483 12.9996 14.8337 12.5915L14.8337 12.5915L14.8337 12.5914C14.9317 12.3756 15.0304 12.1585 15.0526 11.9272C15.0662 11.7866 14.9964 11.6437 14.9271 11.5021L14.9271 11.502C14.8004 11.2431 14.6758 10.9882 15.0671 10.7587C14.7765 10.3956 13.8871 10.338 13.7297 10.974C13.627 12.0948 12.3844 11.9765 12.2575 11.117C13.102 10.8984 13.6623 10.6306 13.4247 9.50161C14.16 8.0489 9.63588 9.592 9.74826 10.3052C9.79523 10.5608 10.0384 10.58 10.2657 10.598L10.2659 10.598L10.2659 10.598C10.5048 10.6168 10.7262 10.6343 10.6842 10.9231C10.465 11.1333 10.1791 11.0805 9.89726 11.0284C9.49395 10.9538 9.09875 10.8807 8.91826 11.582C8.51298 12.7105 9.45104 12.803 10.2556 12.8824L10.2556 12.8824C10.761 12.9322 11.2137 12.9769 11.2477 13.2697C11.273 13.5233 11.4538 13.4712 11.6573 13.4125L11.6573 13.4125C11.8166 13.3666 11.9897 13.3167 12.1131 13.4062C11.7984 13.9271 10.1304 15.7117 9.85262 15.8301C9.97216 16.0929 10.5535 16.4612 11.1566 16.8432L11.1567 16.8432C12.2465 17.5336 13.4077 18.2691 12.0456 18.5103C11.567 18.5296 11.6221 18.7263 11.6719 18.9045C11.7366 19.1356 11.7925 19.3355 10.6618 19.0756C10.6587 19.4733 11.0075 19.4917 11.2902 19.5066C11.6033 19.5231 11.8354 19.5353 11.4195 20.0534C10.7725 20.9935 11.2132 21.1075 11.6779 21.2277L11.678 21.2277C12.1012 21.3371 12.5443 21.4517 12.2046 22.1996V22.1914ZM31.2376 12.1041L31.2377 12.1045C31.2947 12.2427 31.3525 12.3828 31.3926 12.5282C29.799 12.1709 35.0194 17.5272 35.1061 11.8614C35.159 11.329 34.7095 10.3578 34.4222 9.84179C33.9163 9.80528 33.5282 9.41495 33.1584 9.04296L33.1583 9.04292C32.7628 8.64514 32.3882 8.26836 31.9129 8.36774C31.3237 8.91823 29.4373 10.7998 31.0716 11.1827C30.9899 11.5038 31.1118 11.7991 31.2376 12.1041ZM12.5856 21.4456L12.5856 21.4455C12.7058 21.0363 12.8154 20.6631 13.0266 21.2169C13.0992 21.4843 13.3132 21.4376 13.6028 21.3744L13.6029 21.3744L13.6029 21.3744C14.0749 21.2715 14.7478 21.1247 15.3368 22.2226C15.1974 22.3338 15.0459 22.4311 14.8944 22.5283L14.8943 22.5284C14.5064 22.7774 14.1183 23.0265 13.9336 23.511C13.6751 24.0927 12.3298 23.5783 12.3651 23.1593C12.4818 22.9096 12.3939 22.7144 12.3149 22.539L12.3148 22.539C12.2363 22.3646 12.1665 22.2098 12.3153 22.0402C12.4288 21.9796 12.5093 21.7053 12.5856 21.4456Z" fill="#94A3B8"/>
</g>
<g filter="url(#filter2_f_210_11514)">
<ellipse cx="22" cy="11.3329" rx="9.33333" ry="6.66667" fill="url(#paint1_linear_210_11514)" style="mix-blend-mode:soft-light"/>
</g>
<g filter="url(#filter3_di_210_11514)">
<ellipse cx="29.5" cy="11.0001" rx="1.5" ry="2" transform="rotate(-22.1932 29.5 11.0001)" fill="#94A3B8"/>
</g>
<g filter="url(#filter4_di_210_11514)">
<ellipse cx="25.7554" cy="17.9185" rx="1.87701" ry="1.30625" transform="rotate(-22.1932 25.7554 17.9185)" fill="#64748B"/>
</g>
<g filter="url(#filter5_di_210_11514)">
<ellipse cx="16.0198" cy="8.87634" rx="1.49447" ry="1.5255" transform="rotate(15.8877 16.0198 8.87634)" fill="#94A3B8"/>
</g>
<g filter="url(#filter6_di_210_11514)">
<ellipse cx="18.0298" cy="30.0545" rx="1.56468" ry="1.60711" transform="rotate(-20.5835 18.0298 30.0545)" fill="#475569"/>
</g>
<g filter="url(#filter7_di_210_11514)">
<ellipse cx="25.9518" cy="25.0825" rx="2.40196" ry="2" transform="rotate(-20.5835 25.9518 25.0825)" fill="#475569"/>
</g>
<g filter="url(#filter8_di_210_11514)">
<ellipse cx="15.5367" cy="20.5951" rx="1.23333" ry="1.02693" transform="rotate(56.5561 15.5367 20.5951)" fill="#64748B"/>
</g>
<g filter="url(#filter9_di_210_11514)">
<ellipse cx="10.5156" cy="23.3951" rx="0.5923" ry="0.49318" transform="rotate(-20.5835 10.5156 23.3951)" fill="#94A3B8"/>
</g>
<g filter="url(#filter10_di_210_11514)">
<ellipse cx="35.7278" cy="15.6699" rx="0.5923" ry="0.49318" transform="rotate(48.1814 35.7278 15.6699)" fill="#94A3B8"/>
</g>
<g filter="url(#filter11_di_210_11514)">
<ellipse cx="32.7625" cy="26.7703" rx="0.5923" ry="0.49318" transform="rotate(48.1814 32.7625 26.7703)" fill="#64748B"/>
</g>
<g filter="url(#filter12_di_210_11514)">
<ellipse cx="23.7278" cy="6.66984" rx="0.5923" ry="0.49318" transform="rotate(20.8278 23.7278 6.66984)" fill="#94A3B8"/>
</g>
<g filter="url(#filter13_di_210_11514)">
<ellipse cx="19.7289" cy="14.6716" rx="0.5923" ry="0.49318" transform="rotate(20.8278 19.7289 14.6716)" fill="#94A3B8"/>
</g>
<g filter="url(#filter14_di_210_11514)">
<ellipse cx="31.7289" cy="19.6716" rx="0.5923" ry="0.49318" transform="rotate(94.6584 31.7289 19.6716)" fill="#94A3B8"/>
</g>
<g filter="url(#filter15_di_210_11514)">
<ellipse cx="21.5397" cy="22.6304" rx="0.5923" ry="0.49318" transform="rotate(94.6584 21.5397 22.6304)" fill="#94A3B8"/>
</g>
<g filter="url(#filter16_di_210_11514)">
<ellipse cx="24.5397" cy="31.6304" rx="0.5923" ry="0.49318" transform="rotate(94.6584 24.5397 31.6304)" fill="#94A3B8"/>
</g>
<g filter="url(#filter17_d_210_11514)">
<path fill-rule="evenodd" clip-rule="evenodd" d="M52 21.5121C52 21.5081 52 21.504 52 21.5C52 14.5964 46.4036 9 39.5 9C34.1094 9 29.5158 12.4122 27.7613 17.1945C27.1946 17.0672 26.6051 17 26 17C21.5817 17 18 20.5817 18 25C18 25.0236 18.0001 25.0473 18.0003 25.0708C14.6079 25.5559 12 28.4734 12 32C12 35.866 15.134 39 19 39H49C53.9706 39 58 34.9706 58 30C58 26.0813 55.4956 22.7476 52 21.5121Z" fill="#64748B"/>
</g>
<g filter="url(#filter18_ii_210_11514)">
<path fill-rule="evenodd" clip-rule="evenodd" d="M58 30C58 34.9706 53.9706 39 49 39H19C15.134 39 12 35.866 12 32C12 28.134 15.134 25 19 25C21.7924 25 24.2029 26.6351 25.3264 29H40.0549C40.5524 24.5 44.3674 21 49 21C53.9706 21 58 25.0294 58 30Z" fill="#F1F5F9"/>
</g>
<g filter="url(#filter19_f_210_11514)">
<circle cx="19" cy="32" r="5" fill="url(#paint2_linear_210_11514)" style="mix-blend-mode:soft-light"/>
</g>
<g filter="url(#filter20_i_210_11514)">
<circle cx="26" cy="25" r="8" fill="#F1F5F9"/>
</g>
<g filter="url(#filter21_f_210_11514)">
<ellipse cx="26" cy="24" rx="6" ry="5" fill="url(#paint3_linear_210_11514)" style="mix-blend-mode:soft-light"/>
</g>
<g filter="url(#filter22_f_210_11514)">
<circle cx="50" cy="29" r="5" fill="url(#paint4_linear_210_11514)" style="mix-blend-mode:soft-light"/>
</g>
<g filter="url(#filter23_i_210_11514)">
<circle cx="39.5" cy="21.5" r="12.5" fill="#F1F5F9"/>
</g>
<g filter="url(#filter24_f_210_11514)">
<ellipse cx="39" cy="16" rx="7" ry="5" fill="url(#paint5_linear_210_11514)" style="mix-blend-mode:soft-light"/>
</g>
<g filter="url(#filter25_i_210_11514)">
<ellipse cx="35" cy="29.5" rx="9" ry="6.5" fill="url(#paint6_linear_210_11514)"/>
</g>
<g filter="url(#filter26_f_210_11514)">
<ellipse cx="35" cy="29.5" rx="7" ry="4.5" fill="url(#paint7_linear_210_11514)" style="mix-blend-mode:soft-light"/>
</g>
<path fill-rule="evenodd" clip-rule="evenodd" d="M52 21.5121C52 21.5081 52 21.504 52 21.5C52 14.5964 46.4036 9 39.5 9C34.1094 9 29.5158 12.4122 27.7613 17.1945C27.1946 17.0672 26.6051 17 26 17C21.5817 17 18 20.5817 18 25C18 25.0236 18.0001 25.0473 18.0003 25.0708C14.6079 25.5559 12 28.4734 12 32C12 35.866 15.134 39 19 39H49C53.9706 39 58 34.9706 58 30C58 26.0813 55.4956 22.7476 52 21.5121Z" fill="#93C5FD" style="mix-blend-mode:color"/>
<path fill-rule="evenodd" clip-rule="evenodd" d="M52 21.5121C52 21.5081 52 21.504 52 21.5C52 14.5964 46.4036 9 39.5 9C34.1094 9 29.5158 12.4122 27.7613 17.1945C27.1946 17.0672 26.6051 17 26 17C21.5817 17 18 20.5817 18 25C18 25.0236 18.0001 25.0473 18.0003 25.0708C14.6079 25.5559 12 28.4734 12 32C12 35.866 15.134 39 19 39H49C53.9706 39 58 34.9706 58 30C58 26.0813 55.4956 22.7476 52 21.5121Z" fill="#3730A3" style="mix-blend-mode:color"/>
<path fill-rule="evenodd" clip-rule="evenodd" d="M52 21.5121C52 21.5081 52 21.504 52 21.5C52 14.5964 46.4036 9 39.5 9C34.1094 9 29.5158 12.4122 27.7613 17.1945C27.1946 17.0672 26.6051 17 26 17C21.5817 17 18 20.5817 18 25C18 25.0236 18.0001 25.0473 18.0003 25.0708C14.6079 25.5559 12 28.4734 12 32C12 35.866 15.134 39 19 39H49C53.9706 39 58 34.9706 58 30C58 26.0813 55.4956 22.7476 52 21.5121Z" fill="#4338CA" fill-opacity="0.075" style="mix-blend-mode:multiply"/>
</g>
<defs>
<filter id="filter0_d_210_11514" x="0" y="0" width="62" height="47" filterUnits="userSpaceOnUse" color-interpolation-filters="sRGB">
<feFlood flood-opacity="0" result="BackgroundImageFix"/>
<feColorMatrix in="SourceAlpha" type="matrix" values="0 0 0 0 0 0 0 0 0 0 0 0 0 0 0 0 0 0 127 0" result="hardAlpha"/>
<feOffset dy="4"/>
<feGaussianBlur stdDeviation="2"/>
<feComposite in2="hardAlpha" operator="out"/>
<feColorMatrix type="matrix" values="0 0 0 0 0 0 0 0 0 0 0 0 0 0 0 0 0 0 0.25 0"/>
<feBlend mode="normal" in2="BackgroundImageFix" result="effect1_dropShadow_210_11514"/>
<feBlend mode="normal" in="SourceGraphic" in2="effect1_dropShadow_210_11514" result="shape"/>
</filter>
<filter id="filter1_ii_210_11514" x="6" y="0.999512" width="32" height="34" filterUnits="userSpaceOnUse" color-interpolation-filters="sRGB">
<feFlood flood-opacity="0" result="BackgroundImageFix"/>
<feBlend mode="normal" in="SourceGraphic" in2="BackgroundImageFix" result="shape"/>
<feColorMatrix in="SourceAlpha" type="matrix" values="0 0 0 0 0 0 0 0 0 0 0 0 0 0 0 0 0 0 127 0" result="hardAlpha"/>
<feMorphology radius="1" operator="erode" in="SourceAlpha" result="effect1_innerShadow_210_11514"/>
<feOffset dy="-1"/>
<feGaussianBlur stdDeviation="3"/>
<feComposite in2="hardAlpha" operator="arithmetic" k2="-1" k3="1"/>
<feColorMatrix type="matrix" values="0 0 0 0 0.278431 0 0 0 0 0.333333 0 0 0 0 0.411765 0 0 0 1 0"/>
<feBlend mode="normal" in2="shape" result="effect1_innerShadow_210_11514"/>
<feColorMatrix in="SourceAlpha" type="matrix" values="0 0 0 0 0 0 0 0 0 0 0 0 0 0 0 0 0 0 127 0" result="hardAlpha"/>
<feOffset dy="1"/>
<feGaussianBlur stdDeviation="1"/>
<feComposite in2="hardAlpha" operator="arithmetic" k2="-1" k3="1"/>
<feColorMatrix type="matrix" values="0 0 0 0 0.796078 0 0 0 0 0.835294 0 0 0 0 0.882353 0 0 0 1 0"/>
<feBlend mode="normal" in2="effect1_innerShadow_210_11514" result="effect2_innerShadow_210_11514"/>
</filter>
<filter id="filter2_f_210_11514" x="9.99996" y="1.99959" width="24" height="18.6667" filterUnits="userSpaceOnUse" color-interpolation-filters="sRGB">
<feFlood flood-opacity="0" result="BackgroundImageFix"/>
<feBlend mode="normal" in="SourceGraphic" in2="BackgroundImageFix" result="shape"/>
<feGaussianBlur stdDeviation="1.33333" result="effect1_foregroundBlur_210_11514"/>
</filter>
<filter id="filter3_di_210_11514" x="27.4187" y="9.063" width="4.16272" height="4.87417" filterUnits="userSpaceOnUse" color-interpolation-filters="sRGB">
<feFlood flood-opacity="0" result="BackgroundImageFix"/>
<feColorMatrix in="SourceAlpha" type="matrix" values="0 0 0 0 0 0 0 0 0 0 0 0 0 0 0 0 0 0 127 0" result="hardAlpha"/>
<feOffset dy="0.5"/>
<feGaussianBlur stdDeviation="0.25"/>
<feComposite in2="hardAlpha" operator="out"/>
<feColorMatrix type="matrix" values="0 0 0 0 0.886275 0 0 0 0 0.909804 0 0 0 0 0.941176 0 0 0 0.7 0"/>
<feBlend mode="normal" in2="BackgroundImageFix" result="effect1_dropShadow_210_11514"/>
<feBlend mode="normal" in="SourceGraphic" in2="effect1_dropShadow_210_11514" result="shape"/>
<feColorMatrix in="SourceAlpha" type="matrix" values="0 0 0 0 0 0 0 0 0 0 0 0 0 0 0 0 0 0 127 0" result="hardAlpha"/>
<feOffset dy="0.5"/>
<feGaussianBlur stdDeviation="0.5"/>
<feComposite in2="hardAlpha" operator="arithmetic" k2="-1" k3="1"/>
<feColorMatrix type="matrix" values="0 0 0 0 0.392157 0 0 0 0 0.454902 0 0 0 0 0.545098 0 0 0 1 0"/>
<feBlend mode="normal" in2="shape" result="effect2_innerShadow_210_11514"/>
</filter>
<filter id="filter4_di_210_11514" x="23.4484" y="16.5163" width="4.61414" height="3.80439" filterUnits="userSpaceOnUse" color-interpolation-filters="sRGB">
<feFlood flood-opacity="0" result="BackgroundImageFix"/>
<feColorMatrix in="SourceAlpha" type="matrix" values="0 0 0 0 0 0 0 0 0 0 0 0 0 0 0 0 0 0 127 0" result="hardAlpha"/>
<feOffset dy="0.5"/>
<feGaussianBlur stdDeviation="0.25"/>
<feComposite in2="hardAlpha" operator="out"/>
<feColorMatrix type="matrix" values="0 0 0 0 0.886275 0 0 0 0 0.909804 0 0 0 0 0.941176 0 0 0 0.7 0"/>
<feBlend mode="normal" in2="BackgroundImageFix" result="effect1_dropShadow_210_11514"/>
<feBlend mode="normal" in="SourceGraphic" in2="effect1_dropShadow_210_11514" result="shape"/>
<feColorMatrix in="SourceAlpha" type="matrix" values="0 0 0 0 0 0 0 0 0 0 0 0 0 0 0 0 0 0 127 0" result="hardAlpha"/>
<feOffset dy="0.5"/>
<feGaussianBlur stdDeviation="0.5"/>
<feComposite in2="hardAlpha" operator="arithmetic" k2="-1" k3="1"/>
<feColorMatrix type="matrix" values="0 0 0 0 0.392157 0 0 0 0 0.454902 0 0 0 0 0.545098 0 0 0 1 0"/>
<feBlend mode="normal" in2="shape" result="effect2_innerShadow_210_11514"/>
</filter>
<filter id="filter5_di_210_11514" x="14.0226" y="7.35276" width="3.99438" height="4.04717" filterUnits="userSpaceOnUse" color-interpolation-filters="sRGB">
<feFlood flood-opacity="0" result="BackgroundImageFix"/>
<feColorMatrix in="SourceAlpha" type="matrix" values="0 0 0 0 0 0 0 0 0 0 0 0 0 0 0 0 0 0 127 0" result="hardAlpha"/>
<feOffset dy="0.5"/>
<feGaussianBlur stdDeviation="0.25"/>
<feComposite in2="hardAlpha" operator="out"/>
<feColorMatrix type="matrix" values="0 0 0 0 0.886275 0 0 0 0 0.909804 0 0 0 0 0.941176 0 0 0 0.7 0"/>
<feBlend mode="normal" in2="BackgroundImageFix" result="effect1_dropShadow_210_11514"/>
<feBlend mode="normal" in="SourceGraphic" in2="effect1_dropShadow_210_11514" result="shape"/>
<feColorMatrix in="SourceAlpha" type="matrix" values="0 0 0 0 0 0 0 0 0 0 0 0 0 0 0 0 0 0 127 0" result="hardAlpha"/>
<feOffset dy="0.5"/>
<feGaussianBlur stdDeviation="0.5"/>
<feComposite in2="hardAlpha" operator="arithmetic" k2="-1" k3="1"/>
<feColorMatrix type="matrix" values="0 0 0 0 0.392157 0 0 0 0 0.454902 0 0 0 0 0.545098 0 0 0 1 0"/>
<feBlend mode="normal" in2="shape" result="effect2_innerShadow_210_11514"/>
</filter>
<filter id="filter6_di_210_11514" x="15.9594" y="28.4521" width="4.14087" height="4.20472" filterUnits="userSpaceOnUse" color-interpolation-filters="sRGB">
<feFlood flood-opacity="0" result="BackgroundImageFix"/>
<feColorMatrix in="SourceAlpha" type="matrix" values="0 0 0 0 0 0 0 0 0 0 0 0 0 0 0 0 0 0 127 0" result="hardAlpha"/>
<feOffset dy="0.5"/>
<feGaussianBlur stdDeviation="0.25"/>
<feComposite in2="hardAlpha" operator="out"/>
<feColorMatrix type="matrix" values="0 0 0 0 0.886275 0 0 0 0 0.909804 0 0 0 0 0.941176 0 0 0 0.15 0"/>
<feBlend mode="normal" in2="BackgroundImageFix" result="effect1_dropShadow_210_11514"/>
<feBlend mode="normal" in="SourceGraphic" in2="effect1_dropShadow_210_11514" result="shape"/>
<feColorMatrix in="SourceAlpha" type="matrix" values="0 0 0 0 0 0 0 0 0 0 0 0 0 0 0 0 0 0 127 0" result="hardAlpha"/>
<feOffset dy="0.5"/>
<feGaussianBlur stdDeviation="0.5"/>
<feComposite in2="hardAlpha" operator="arithmetic" k2="-1" k3="1"/>
<feColorMatrix type="matrix" values="0 0 0 0 0.392157 0 0 0 0 0.454902 0 0 0 0 0.545098 0 0 0 1 0"/>
<feBlend mode="normal" in2="shape" result="effect2_innerShadow_210_11514"/>
</filter>
<filter id="filter7_di_210_11514" x="23.0951" y="23.0281" width="5.71326" height="5.10891" filterUnits="userSpaceOnUse" color-interpolation-filters="sRGB">
<feFlood flood-opacity="0" result="BackgroundImageFix"/>
<feColorMatrix in="SourceAlpha" type="matrix" values="0 0 0 0 0 0 0 0 0 0 0 0 0 0 0 0 0 0 127 0" result="hardAlpha"/>
<feOffset dy="0.5"/>
<feGaussianBlur stdDeviation="0.25"/>
<feComposite in2="hardAlpha" operator="out"/>
<feColorMatrix type="matrix" values="0 0 0 0 0.886275 0 0 0 0 0.909804 0 0 0 0 0.941176 0 0 0 0.3 0"/>
<feBlend mode="normal" in2="BackgroundImageFix" result="effect1_dropShadow_210_11514"/>
<feBlend mode="normal" in="SourceGraphic" in2="effect1_dropShadow_210_11514" result="shape"/>
<feColorMatrix in="SourceAlpha" type="matrix" values="0 0 0 0 0 0 0 0 0 0 0 0 0 0 0 0 0 0 127 0" result="hardAlpha"/>
<feOffset dy="0.5"/>
<feGaussianBlur stdDeviation="0.5"/>
<feComposite in2="hardAlpha" operator="arithmetic" k2="-1" k3="1"/>
<feColorMatrix type="matrix" values="0 0 0 0 0.392157 0 0 0 0 0.454902 0 0 0 0 0.545098 0 0 0 1 0"/>
<feBlend mode="normal" in2="shape" result="effect2_innerShadow_210_11514"/>
</filter>
<filter id="filter8_di_210_11514" x="13.9429" y="19.4204" width="3.18762" height="3.3494" filterUnits="userSpaceOnUse" color-interpolation-filters="sRGB">
<feFlood flood-opacity="0" result="BackgroundImageFix"/>
<feColorMatrix in="SourceAlpha" type="matrix" values="0 0 0 0 0 0 0 0 0 0 0 0 0 0 0 0 0 0 127 0" result="hardAlpha"/>
<feOffset dy="0.5"/>
<feGaussianBlur stdDeviation="0.25"/>
<feComposite in2="hardAlpha" operator="out"/>
<feColorMatrix type="matrix" values="0 0 0 0 0.886275 0 0 0 0 0.909804 0 0 0 0 0.941176 0 0 0 0.7 0"/>
<feBlend mode="normal" in2="BackgroundImageFix" result="effect1_dropShadow_210_11514"/>
<feBlend mode="normal" in="SourceGraphic" in2="effect1_dropShadow_210_11514" result="shape"/>
<feColorMatrix in="SourceAlpha" type="matrix" values="0 0 0 0 0 0 0 0 0 0 0 0 0 0 0 0 0 0 127 0" result="hardAlpha"/>
<feOffset dy="0.5"/>
<feGaussianBlur stdDeviation="0.5"/>
<feComposite in2="hardAlpha" operator="arithmetic" k2="-1" k3="1"/>
<feColorMatrix type="matrix" values="0 0 0 0 0.392157 0 0 0 0 0.454902 0 0 0 0 0.545098 0 0 0 1 0"/>
<feBlend mode="normal" in2="shape" result="effect2_innerShadow_210_11514"/>
</filter>
<filter id="filter9_di_210_11514" x="9.43445" y="22.8885" width="2.16223" height="2.01321" filterUnits="userSpaceOnUse" color-interpolation-filters="sRGB">
<feFlood flood-opacity="0" result="BackgroundImageFix"/>
<feColorMatrix in="SourceAlpha" type="matrix" values="0 0 0 0 0 0 0 0 0 0 0 0 0 0 0 0 0 0 127 0" result="hardAlpha"/>
<feOffset dy="0.5"/>
<feGaussianBlur stdDeviation="0.25"/>
<feComposite in2="hardAlpha" operator="out"/>
<feColorMatrix type="matrix" values="0 0 0 0 0.886275 0 0 0 0 0.909804 0 0 0 0 0.941176 0 0 0 0.2 0"/>
<feBlend mode="normal" in2="BackgroundImageFix" result="effect1_dropShadow_210_11514"/>
<feBlend mode="normal" in="SourceGraphic" in2="effect1_dropShadow_210_11514" result="shape"/>
<feColorMatrix in="SourceAlpha" type="matrix" values="0 0 0 0 0 0 0 0 0 0 0 0 0 0 0 0 0 0 127 0" result="hardAlpha"/>
<feOffset dy="0.5"/>
<feGaussianBlur stdDeviation="0.5"/>
<feComposite in2="hardAlpha" operator="arithmetic" k2="-1" k3="1"/>
<feColorMatrix type="matrix" values="0 0 0 0 0.392157 0 0 0 0 0.454902 0 0 0 0 0.545098 0 0 0 1 0"/>
<feBlend mode="normal" in2="shape" result="effect2_innerShadow_210_11514"/>
</filter>
<filter id="filter10_di_210_11514" x="34.6884" y="15.1194" width="2.07898" height="2.10095" filterUnits="userSpaceOnUse" color-interpolation-filters="sRGB">
<feFlood flood-opacity="0" result="BackgroundImageFix"/>
<feColorMatrix in="SourceAlpha" type="matrix" values="0 0 0 0 0 0 0 0 0 0 0 0 0 0 0 0 0 0 127 0" result="hardAlpha"/>
<feOffset dy="0.5"/>
<feGaussianBlur stdDeviation="0.25"/>
<feComposite in2="hardAlpha" operator="out"/>
<feColorMatrix type="matrix" values="0 0 0 0 0.886275 0 0 0 0 0.909804 0 0 0 0 0.941176 0 0 0 0.2 0"/>
<feBlend mode="normal" in2="BackgroundImageFix" result="effect1_dropShadow_210_11514"/>
<feBlend mode="normal" in="SourceGraphic" in2="effect1_dropShadow_210_11514" result="shape"/>
<feColorMatrix in="SourceAlpha" type="matrix" values="0 0 0 0 0 0 0 0 0 0 0 0 0 0 0 0 0 0 127 0" result="hardAlpha"/>
<feOffset dy="0.5"/>
<feGaussianBlur stdDeviation="0.5"/>
<feComposite in2="hardAlpha" operator="arithmetic" k2="-1" k3="1"/>
<feColorMatrix type="matrix" values="0 0 0 0 0.392157 0 0 0 0 0.454902 0 0 0 0 0.545098 0 0 0 1 0"/>
<feBlend mode="normal" in2="shape" result="effect2_innerShadow_210_11514"/>
</filter>
<filter id="filter11_di_210_11514" x="31.723" y="26.2198" width="2.07898" height="2.10095" filterUnits="userSpaceOnUse" color-interpolation-filters="sRGB">
<feFlood flood-opacity="0" result="BackgroundImageFix"/>
<feColorMatrix in="SourceAlpha" type="matrix" values="0 0 0 0 0 0 0 0 0 0 0 0 0 0 0 0 0 0 127 0" result="hardAlpha"/>
<feOffset dy="0.5"/>
<feGaussianBlur stdDeviation="0.25"/>
<feComposite in2="hardAlpha" operator="out"/>
<feColorMatrix type="matrix" values="0 0 0 0 0.886275 0 0 0 0 0.909804 0 0 0 0 0.941176 0 0 0 0.2 0"/>
<feBlend mode="normal" in2="BackgroundImageFix" result="effect1_dropShadow_210_11514"/>
<feBlend mode="normal" in="SourceGraphic" in2="effect1_dropShadow_210_11514" result="shape"/>
<feColorMatrix in="SourceAlpha" type="matrix" values="0 0 0 0 0 0 0 0 0 0 0 0 0 0 0 0 0 0 127 0" result="hardAlpha"/>
<feOffset dy="0.5"/>
<feGaussianBlur stdDeviation="0.5"/>
<feComposite in2="hardAlpha" operator="arithmetic" k2="-1" k3="1"/>
<feColorMatrix type="matrix" values="0 0 0 0 0.392157 0 0 0 0 0.454902 0 0 0 0 0.545098 0 0 0 1 0"/>
<feBlend mode="normal" in2="shape" result="effect2_innerShadow_210_11514"/>
</filter>
<filter id="filter12_di_210_11514" x="22.647" y="6.16293" width="2.16174" height="2.01382" filterUnits="userSpaceOnUse" color-interpolation-filters="sRGB">
<feFlood flood-opacity="0" result="BackgroundImageFix"/>
<feColorMatrix in="SourceAlpha" type="matrix" values="0 0 0 0 0 0 0 0 0 0 0 0 0 0 0 0 0 0 127 0" result="hardAlpha"/>
<feOffset dy="0.5"/>
<feGaussianBlur stdDeviation="0.25"/>
<feComposite in2="hardAlpha" operator="out"/>
<feColorMatrix type="matrix" values="0 0 0 0 0.886275 0 0 0 0 0.909804 0 0 0 0 0.941176 0 0 0 0.7 0"/>
<feBlend mode="normal" in2="BackgroundImageFix" result="effect1_dropShadow_210_11514"/>
<feBlend mode="normal" in="SourceGraphic" in2="effect1_dropShadow_210_11514" result="shape"/>
<feColorMatrix in="SourceAlpha" type="matrix" values="0 0 0 0 0 0 0 0 0 0 0 0 0 0 0 0 0 0 127 0" result="hardAlpha"/>
<feOffset dy="0.5"/>
<feGaussianBlur stdDeviation="0.5"/>
<feComposite in2="hardAlpha" operator="arithmetic" k2="-1" k3="1"/>
<feColorMatrix type="matrix" values="0 0 0 0 0.392157 0 0 0 0 0.454902 0 0 0 0 0.545098 0 0 0 1 0"/>
<feBlend mode="normal" in2="shape" result="effect2_innerShadow_210_11514"/>
</filter>
<filter id="filter13_di_210_11514" x="18.6481" y="14.1646" width="2.16174" height="2.01382" filterUnits="userSpaceOnUse" color-interpolation-filters="sRGB">
<feFlood flood-opacity="0" result="BackgroundImageFix"/>
<feColorMatrix in="SourceAlpha" type="matrix" values="0 0 0 0 0 0 0 0 0 0 0 0 0 0 0 0 0 0 127 0" result="hardAlpha"/>
<feOffset dy="0.5"/>
<feGaussianBlur stdDeviation="0.25"/>
<feComposite in2="hardAlpha" operator="out"/>
<feColorMatrix type="matrix" values="0 0 0 0 0.886275 0 0 0 0 0.909804 0 0 0 0 0.941176 0 0 0 0.7 0"/>
<feBlend mode="normal" in2="BackgroundImageFix" result="effect1_dropShadow_210_11514"/>
<feBlend mode="normal" in="SourceGraphic" in2="effect1_dropShadow_210_11514" result="shape"/>
<feColorMatrix in="SourceAlpha" type="matrix" values="0 0 0 0 0 0 0 0 0 0 0 0 0 0 0 0 0 0 127 0" result="hardAlpha"/>
<feOffset dy="0.5"/>
<feGaussianBlur stdDeviation="0.5"/>
<feComposite in2="hardAlpha" operator="arithmetic" k2="-1" k3="1"/>
<feColorMatrix type="matrix" values="0 0 0 0 0.392157 0 0 0 0 0.454902 0 0 0 0 0.545098 0 0 0 1 0"/>
<feBlend mode="normal" in2="shape" result="effect2_innerShadow_210_11514"/>
</filter>
<filter id="filter14_di_210_11514" x="30.735" y="19.0799" width="1.98779" height="2.18345" filterUnits="userSpaceOnUse" color-interpolation-filters="sRGB">
<feFlood flood-opacity="0" result="BackgroundImageFix"/>
<feColorMatrix in="SourceAlpha" type="matrix" values="0 0 0 0 0 0 0 0 0 0 0 0 0 0 0 0 0 0 127 0" result="hardAlpha"/>
<feOffset dy="0.5"/>
<feGaussianBlur stdDeviation="0.25"/>
<feComposite in2="hardAlpha" operator="out"/>
<feColorMatrix type="matrix" values="0 0 0 0 0.886275 0 0 0 0 0.909804 0 0 0 0 0.941176 0 0 0 0.4 0"/>
<feBlend mode="normal" in2="BackgroundImageFix" result="effect1_dropShadow_210_11514"/>
<feBlend mode="normal" in="SourceGraphic" in2="effect1_dropShadow_210_11514" result="shape"/>
<feColorMatrix in="SourceAlpha" type="matrix" values="0 0 0 0 0 0 0 0 0 0 0 0 0 0 0 0 0 0 127 0" result="hardAlpha"/>
<feOffset dy="0.5"/>
<feGaussianBlur stdDeviation="0.5"/>
<feComposite in2="hardAlpha" operator="arithmetic" k2="-1" k3="1"/>
<feColorMatrix type="matrix" values="0 0 0 0 0.392157 0 0 0 0 0.454902 0 0 0 0 0.545098 0 0 0 1 0"/>
<feBlend mode="normal" in2="shape" result="effect2_innerShadow_210_11514"/>
</filter>
<filter id="filter15_di_210_11514" x="20.5458" y="22.0386" width="1.98779" height="2.18345" filterUnits="userSpaceOnUse" color-interpolation-filters="sRGB">
<feFlood flood-opacity="0" result="BackgroundImageFix"/>
<feColorMatrix in="SourceAlpha" type="matrix" values="0 0 0 0 0 0 0 0 0 0 0 0 0 0 0 0 0 0 127 0" result="hardAlpha"/>
<feOffset dy="0.5"/>
<feGaussianBlur stdDeviation="0.25"/>
<feComposite in2="hardAlpha" operator="out"/>
<feColorMatrix type="matrix" values="0 0 0 0 0.886275 0 0 0 0 0.909804 0 0 0 0 0.941176 0 0 0 0.4 0"/>
<feBlend mode="normal" in2="BackgroundImageFix" result="effect1_dropShadow_210_11514"/>
<feBlend mode="normal" in="SourceGraphic" in2="effect1_dropShadow_210_11514" result="shape"/>
<feColorMatrix in="SourceAlpha" type="matrix" values="0 0 0 0 0 0 0 0 0 0 0 0 0 0 0 0 0 0 127 0" result="hardAlpha"/>
<feOffset dy="0.5"/>
<feGaussianBlur stdDeviation="0.5"/>
<feComposite in2="hardAlpha" operator="arithmetic" k2="-1" k3="1"/>
<feColorMatrix type="matrix" values="0 0 0 0 0.392157 0 0 0 0 0.454902 0 0 0 0 0.545098 0 0 0 1 0"/>
<feBlend mode="normal" in2="shape" result="effect2_innerShadow_210_11514"/>
</filter>
<filter id="filter16_di_210_11514" x="23.5458" y="31.0386" width="1.98779" height="2.18345" filterUnits="userSpaceOnUse" color-interpolation-filters="sRGB">
<feFlood flood-opacity="0" result="BackgroundImageFix"/>
<feColorMatrix in="SourceAlpha" type="matrix" values="0 0 0 0 0 0 0 0 0 0 0 0 0 0 0 0 0 0 127 0" result="hardAlpha"/>
<feOffset dy="0.5"/>
<feGaussianBlur stdDeviation="0.25"/>
<feComposite in2="hardAlpha" operator="out"/>
<feColorMatrix type="matrix" values="0 0 0 0 0.886275 0 0 0 0 0.909804 0 0 0 0 0.941176 0 0 0 0.2 0"/>
<feBlend mode="normal" in2="BackgroundImageFix" result="effect1_dropShadow_210_11514"/>
<feBlend mode="normal" in="SourceGraphic" in2="effect1_dropShadow_210_11514" result="shape"/>
<feColorMatrix in="SourceAlpha" type="matrix" values="0 0 0 0 0 0 0 0 0 0 0 0 0 0 0 0 0 0 127 0" result="hardAlpha"/>
<feOffset dy="0.5"/>
<feGaussianBlur stdDeviation="0.5"/>
<feComposite in2="hardAlpha" operator="arithmetic" k2="-1" k3="1"/>
<feColorMatrix type="matrix" values="0 0 0 0 0.392157 0 0 0 0 0.454902 0 0 0 0 0.545098 0 0 0 1 0"/>
<feBlend mode="normal" in2="shape" result="effect2_innerShadow_210_11514"/>
</filter>
<filter id="filter17_d_210_11514" x="8" y="7" width="54" height="38" filterUnits="userSpaceOnUse" color-interpolation-filters="sRGB">
<feFlood flood-opacity="0" result="BackgroundImageFix"/>
<feColorMatrix in="SourceAlpha" type="matrix" values="0 0 0 0 0 0 0 0 0 0 0 0 0 0 0 0 0 0 127 0" result="hardAlpha"/>
<feOffset dy="2"/>
<feGaussianBlur stdDeviation="2"/>
<feComposite in2="hardAlpha" operator="out"/>
<feColorMatrix type="matrix" values="0 0 0 0 0.278431 0 0 0 0 0.333333 0 0 0 0 0.411765 0 0 0 0.4 0"/>
<feBlend mode="normal" in2="BackgroundImageFix" result="effect1_dropShadow_210_11514"/>
<feBlend mode="normal" in="SourceGraphic" in2="effect1_dropShadow_210_11514" result="shape"/>
</filter>
<filter id="filter18_ii_210_11514" x="12" y="19" width="46" height="22" filterUnits="userSpaceOnUse" color-interpolation-filters="sRGB">
<feFlood flood-opacity="0" result="BackgroundImageFix"/>
<feBlend mode="normal" in="SourceGraphic" in2="BackgroundImageFix" result="shape"/>
<feColorMatrix in="SourceAlpha" type="matrix" values="0 0 0 0 0 0 0 0 0 0 0 0 0 0 0 0 0 0 127 0" result="hardAlpha"/>
<feOffset dy="2"/>
<feGaussianBlur stdDeviation="1"/>
<feComposite in2="hardAlpha" operator="arithmetic" k2="-1" k3="1"/>
<feColorMatrix type="matrix" values="0 0 0 0 0.796078 0 0 0 0 0.835294 0 0 0 0 0.882353 0 0 0 1 0"/>
<feBlend mode="normal" in2="shape" result="effect1_innerShadow_210_11514"/>
<feColorMatrix in="SourceAlpha" type="matrix" values="0 0 0 0 0 0 0 0 0 0 0 0 0 0 0 0 0 0 127 0" result="hardAlpha"/>
<feOffset dy="-2"/>
<feGaussianBlur stdDeviation="1"/>
<feComposite in2="hardAlpha" operator="arithmetic" k2="-1" k3="1"/>
<feColorMatrix type="matrix" values="0 0 0 0 0.796078 0 0 0 0 0.835294 0 0 0 0 0.882353 0 0 0 0.6 0"/>
<feBlend mode="normal" in2="effect1_innerShadow_210_11514" result="effect2_innerShadow_210_11514"/>
</filter>
<filter id="filter19_f_210_11514" x="12" y="25" width="14" height="14" filterUnits="userSpaceOnUse" color-interpolation-filters="sRGB">
<feFlood flood-opacity="0" result="BackgroundImageFix"/>
<feBlend mode="normal" in="SourceGraphic" in2="BackgroundImageFix" result="shape"/>
<feGaussianBlur stdDeviation="1" result="effect1_foregroundBlur_210_11514"/>
</filter>
<filter id="filter20_i_210_11514" x="18" y="17" width="16" height="18" filterUnits="userSpaceOnUse" color-interpolation-filters="sRGB">
<feFlood flood-opacity="0" result="BackgroundImageFix"/>
<feBlend mode="normal" in="SourceGraphic" in2="BackgroundImageFix" result="shape"/>
<feColorMatrix in="SourceAlpha" type="matrix" values="0 0 0 0 0 0 0 0 0 0 0 0 0 0 0 0 0 0 127 0" result="hardAlpha"/>
<feOffset dy="2"/>
<feGaussianBlur stdDeviation="1"/>
<feComposite in2="hardAlpha" operator="arithmetic" k2="-1" k3="1"/>
<feColorMatrix type="matrix" values="0 0 0 0 0.796078 0 0 0 0 0.835294 0 0 0 0 0.882353 0 0 0 1 0"/>
<feBlend mode="normal" in2="shape" result="effect1_innerShadow_210_11514"/>
</filter>
<filter id="filter21_f_210_11514" x="18" y="17" width="16" height="14" filterUnits="userSpaceOnUse" color-interpolation-filters="sRGB">
<feFlood flood-opacity="0" result="BackgroundImageFix"/>
<feBlend mode="normal" in="SourceGraphic" in2="BackgroundImageFix" result="shape"/>
<feGaussianBlur stdDeviation="1" result="effect1_foregroundBlur_210_11514"/>
</filter>
<filter id="filter22_f_210_11514" x="43" y="22" width="14" height="14" filterUnits="userSpaceOnUse" color-interpolation-filters="sRGB">
<feFlood flood-opacity="0" result="BackgroundImageFix"/>
<feBlend mode="normal" in="SourceGraphic" in2="BackgroundImageFix" result="shape"/>
<feGaussianBlur stdDeviation="1" result="effect1_foregroundBlur_210_11514"/>
</filter>
<filter id="filter23_i_210_11514" x="27" y="9" width="25" height="27" filterUnits="userSpaceOnUse" color-interpolation-filters="sRGB">
<feFlood flood-opacity="0" result="BackgroundImageFix"/>
<feBlend mode="normal" in="SourceGraphic" in2="BackgroundImageFix" result="shape"/>
<feColorMatrix in="SourceAlpha" type="matrix" values="0 0 0 0 0 0 0 0 0 0 0 0 0 0 0 0 0 0 127 0" result="hardAlpha"/>
<feOffset dy="2"/>
<feGaussianBlur stdDeviation="1"/>
<feComposite in2="hardAlpha" operator="arithmetic" k2="-1" k3="1"/>
<feColorMatrix type="matrix" values="0 0 0 0 0.796078 0 0 0 0 0.835294 0 0 0 0 0.882353 0 0 0 1 0"/>
<feBlend mode="normal" in2="shape" result="effect1_innerShadow_210_11514"/>
</filter>
<filter id="filter24_f_210_11514" x="30" y="9" width="18" height="14" filterUnits="userSpaceOnUse" color-interpolation-filters="sRGB">
<feFlood flood-opacity="0" result="BackgroundImageFix"/>
<feBlend mode="normal" in="SourceGraphic" in2="BackgroundImageFix" result="shape"/>
<feGaussianBlur stdDeviation="1" result="effect1_foregroundBlur_210_11514"/>
</filter>
<filter id="filter25_i_210_11514" x="26" y="23" width="18" height="15" filterUnits="userSpaceOnUse" color-interpolation-filters="sRGB">
<feFlood flood-opacity="0" result="BackgroundImageFix"/>
<feBlend mode="normal" in="SourceGraphic" in2="BackgroundImageFix" result="shape"/>
<feColorMatrix in="SourceAlpha" type="matrix" values="0 0 0 0 0 0 0 0 0 0 0 0 0 0 0 0 0 0 127 0" result="hardAlpha"/>
<feOffset dy="2"/>
<feGaussianBlur stdDeviation="1"/>
<feComposite in2="hardAlpha" operator="arithmetic" k2="-1" k3="1"/>
<feColorMatrix type="matrix" values="0 0 0 0 0.796078 0 0 0 0 0.835294 0 0 0 0 0.882353 0 0 0 0.6 0"/>
<feBlend mode="normal" in2="shape" result="effect1_innerShadow_210_11514"/>
</filter>
<filter id="filter26_f_210_11514" x="26" y="23" width="18" height="13" filterUnits="userSpaceOnUse" color-interpolation-filters="sRGB">
<feFlood flood-opacity="0" result="BackgroundImageFix"/>
<feBlend mode="normal" in="SourceGraphic" in2="BackgroundImageFix" result="shape"/>
<feGaussianBlur stdDeviation="1" result="effect1_foregroundBlur_210_11514"/>
</filter>
<linearGradient id="paint0_linear_210_11514" x1="22" y1="1.99951" x2="22" y2="33.9995" gradientUnits="userSpaceOnUse">
<stop stop-color="#E2E8F0"/>
<stop offset="1" stop-color="#64748B"/>
</linearGradient>
<linearGradient id="paint1_linear_210_11514" x1="22" y1="4.66626" x2="22" y2="17.9996" gradientUnits="userSpaceOnUse">
<stop stop-color="#F1F5F9"/>
<stop offset="1" stop-color="#E2E8F0" stop-opacity="0"/>
</linearGradient>
<linearGradient id="paint2_linear_210_11514" x1="19" y1="27" x2="19" y2="37" gradientUnits="userSpaceOnUse">
<stop stop-color="white"/>
<stop offset="1" stop-color="#F3F3F3" stop-opacity="0.2"/>
</linearGradient>
<linearGradient id="paint3_linear_210_11514" x1="26" y1="19" x2="26" y2="29" gradientUnits="userSpaceOnUse">
<stop stop-color="white"/>
<stop offset="1" stop-color="#F3F3F3" stop-opacity="0.2"/>
</linearGradient>
<linearGradient id="paint4_linear_210_11514" x1="50" y1="24" x2="50" y2="34" gradientUnits="userSpaceOnUse">
<stop stop-color="white"/>
<stop offset="1" stop-color="#F3F3F3" stop-opacity="0.2"/>
</linearGradient>
<linearGradient id="paint5_linear_210_11514" x1="39" y1="11" x2="39" y2="21" gradientUnits="userSpaceOnUse">
<stop stop-color="white"/>
<stop offset="1" stop-color="#F3F3F3" stop-opacity="0.2"/>
</linearGradient>
<linearGradient id="paint6_linear_210_11514" x1="35" y1="23" x2="35" y2="36" gradientUnits="userSpaceOnUse">
<stop stop-color="#F1F5F9"/>
<stop offset="0.650321" stop-color="#F1F5F9" stop-opacity="0"/>
</linearGradient>
<linearGradient id="paint7_linear_210_11514" x1="35" y1="25" x2="35" y2="34" gradientUnits="userSpaceOnUse">
<stop stop-color="white"/>
<stop offset="1" stop-color="#F3F3F3" stop-opacity="0.2"/>
</linearGradient>
</defs>
</svg>
